<svg version="1.1" id="Layer_1" xmlns="http://www.w3.org/2000/svg" xmlns:xlink="http://www.w3.org/1999/xlink" x="0px" y="0px"
	 width="100%" viewBox="0 0 496 496" enable-background="new 0 0 496 496" xml:space="preserve">
<path fill="#000000" opacity="1.000000" stroke="none" 
	d="
M352.344482,225.906372 
	C356.095978,258.264130 347.050568,286.279480 324.947510,309.315765 
	C304.970764,330.135925 280.345734,340.956696 250.817490,340.573792 
	C208.371750,340.023346 177.971741,320.257446 159.054855,283.254486 
	C135.218399,236.628525 153.150589,177.981171 198.286957,151.204483 
	C258.485596,115.492256 335.052979,148.084229 350.753998,216.129913 
	C351.461731,219.196960 351.814240,222.345963 352.344482,225.906372 
M263.674988,334.089844 
	C315.673035,327.591187 357.675354,278.350616 344.882294,218.189346 
	C332.216949,158.628464 269.862305,126.736046 213.398254,150.337357 
	C173.202438,167.138718 149.106277,206.423187 155.815506,252.989044 
	C163.379944,305.490540 210.312042,340.184387 263.674988,334.089844 
z"/>
<path fill="#000000" opacity="1.000000" stroke="none" 
	d="
M194.899170,382.284241 
	C190.574844,381.364319 190.453186,378.906799 191.996353,375.877136 
	C193.271103,373.374481 194.649612,370.924683 195.455765,367.837982 
	C193.537476,369.216064 191.654312,370.646790 189.690582,371.956726 
	C187.905655,373.147339 186.086380,374.575867 183.748444,373.345703 
	C181.331604,372.074005 181.027298,369.745422 180.987793,367.355164 
	C180.950119,365.075317 180.979675,362.794342 180.979675,359.822998 
	C179.269592,362.836151 177.829910,365.379913 176.383240,367.919708 
	C175.206894,369.984924 173.628296,371.482880 171.134644,370.281555 
	C168.443314,368.984985 168.442322,366.785675 169.717926,364.391235 
	C172.845001,358.521484 175.958511,352.644470 179.086960,346.775421 
	C180.249405,344.594666 181.727951,342.749542 184.547409,343.549774 
	C187.117538,344.279266 188.231827,346.331818 188.277176,348.859528 
	C188.363358,353.663605 188.302139,358.470306 188.302139,363.748016 
	C192.841843,362.362274 195.684052,358.970245 199.275467,356.837128 
	C200.996857,355.814667 202.554657,354.493378 204.722351,354.740265 
	C207.960770,355.109070 210.139084,357.196655 208.775925,360.106964 
	C205.333710,367.455963 201.788788,374.809021 197.068787,381.477600 
	C196.747589,381.931396 195.901184,382.013458 194.899170,382.284241 
z"/>
<path fill="#000000" opacity="1.000000" stroke="none" 
	d="
M246.666916,93.930077 
	C247.071838,86.033165 247.553574,85.542465 254.876709,85.712852 
	C256.857697,85.758949 258.843536,86.005341 260.807373,86.294228 
	C264.969086,86.906410 268.607178,88.451897 269.958771,92.862434 
	C271.286835,97.196129 269.647217,100.666115 266.156219,103.238724 
	C266.238770,105.764198 267.985535,107.272995 268.947754,109.138771 
	C270.216309,111.598579 271.679993,114.311295 268.563507,116.103912 
	C265.367340,117.942383 263.843872,115.076767 262.393921,112.832802 
	C261.222198,111.019371 260.134613,109.151764 258.982361,107.325409 
	C258.122772,105.962875 256.934174,105.145264 255.246170,105.372536 
	C253.131485,105.657265 253.392395,107.367195 253.238083,108.813835 
	C253.150055,109.639168 253.169815,110.487961 252.980560,111.288246 
	C252.445740,113.549889 251.450439,115.458130 248.674332,115.159592 
	C246.071671,114.879707 245.753036,112.905495 245.650635,110.775574 
	C245.386063,105.272293 246.157028,99.838509 246.666916,93.930077 
M254.384323,96.179657 
	C255.924500,98.901260 258.209717,99.025085 260.753052,97.904869 
	C261.872986,97.411598 262.775940,96.514290 262.345154,95.154686 
	C261.632751,92.906235 259.503845,93.233810 257.775391,92.858627 
	C255.589523,92.384171 254.103897,92.803917 254.384323,96.179657 
z"/>
<path fill="#000000" opacity="1.000000" stroke="none" 
	d="
M199.810837,120.240463 
	C198.083832,117.324669 197.934479,113.022186 192.771317,115.384750 
	C189.168411,117.033379 187.697144,118.785522 189.983368,122.460632 
	C190.501190,123.293022 190.842117,124.276390 191.075516,125.236198 
	C191.556122,127.212631 191.102936,128.958160 189.127838,129.849869 
	C187.089767,130.770004 185.326538,129.847488 184.503311,128.071762 
	C181.216522,120.982124 178.058167,113.829788 175.023743,106.628410 
	C174.202576,104.679581 175.237213,103.003052 177.140289,102.148636 
	C178.938324,101.341393 180.410995,102.106873 181.447098,103.624710 
	C182.098022,104.578308 182.688843,105.622253 183.057602,106.710083 
	C184.275192,110.301888 186.147919,111.117409 189.865295,109.545357 
	C193.894302,107.841492 193.635941,105.628235 191.970871,102.578125 
	C191.574707,101.852440 191.255219,101.067764 191.019699,100.274811 
	C190.382019,98.127922 190.717773,96.233910 192.932236,95.228706 
	C194.972183,94.302719 196.745682,95.235931 197.561523,97.002563 
	C200.837601,104.096619 203.959335,111.264206 207.001663,118.462303 
	C207.725250,120.174355 207.014252,121.796974 205.296204,122.674591 
	C202.799225,123.950127 201.204132,122.661804 199.810837,120.240463 
z"/>
<path fill="#000000" opacity="1.000000" stroke="none" 
	d="
M307.085144,368.869568 
	C304.822388,364.954010 302.732361,361.360657 300.699005,357.735504 
	C299.545074,355.678314 299.061523,353.471222 301.449707,352.046875 
	C303.982239,350.536407 305.795227,351.948944 307.289001,354.091766 
	C308.501129,355.830566 309.060394,358.061340 311.143982,359.336914 
	C313.899536,358.640167 316.173096,357.080414 318.284790,355.192017 
	C318.198486,352.436066 316.236725,350.614807 315.283630,348.358795 
	C314.470673,346.434448 314.563690,344.730988 316.343689,343.497437 
	C318.376953,342.088287 320.368134,342.680908 321.516449,344.603241 
	C325.434540,351.162231 329.246490,357.789856 332.885376,364.506989 
	C333.910522,366.399292 333.458038,368.493713 331.248688,369.605011 
	C329.193054,370.638855 327.696564,369.560852 326.587524,367.946503 
	C325.194977,365.919495 323.956329,363.786743 322.630890,361.666992 
	C319.543030,362.433929 317.332825,364.161469 314.976746,365.705261 
	C314.648804,368.369415 316.715759,369.956329 317.610352,372.013092 
	C318.556335,374.188019 318.924805,376.409546 316.706787,377.801483 
	C314.189331,379.381409 312.294769,377.958435 310.970093,375.688446 
	C309.713104,373.534515 308.508972,371.349701 307.085144,368.869568 
z"/>
<path fill="#000000" opacity="1.000000" stroke="none" 
	d="
M222.828094,87.179092 
	C225.726517,87.741272 227.101913,89.615913 228.315750,91.636520 
	C231.649994,97.186874 235.005005,102.725929 238.243683,108.331924 
	C239.573318,110.633476 241.149918,113.252502 237.959091,115.289009 
	C234.979202,117.190895 233.538773,114.821304 231.977188,112.770493 
	C229.343674,109.311905 221.904114,110.413918 220.219284,114.448586 
	C219.899963,115.213295 219.660538,116.012444 219.322418,116.768036 
	C218.462906,118.688744 216.954163,119.583336 214.905289,119.072289 
	C212.754181,118.535728 211.991577,116.785851 212.360779,114.830559 
	C213.866287,106.857689 215.425934,98.891914 217.179123,90.970772 
	C217.742874,88.423683 219.926132,87.366592 222.828094,87.179092 
M226.216339,102.607887 
	C225.617050,100.908073 225.126602,99.130432 222.786835,98.127144 
	C222.371887,100.169327 221.518417,102.148903 222.822006,103.850304 
	C223.844772,105.185234 225.201324,104.402725 226.216339,102.607887 
z"/>
<path fill="#000000" opacity="1.000000" stroke="none" 
	d="
M210.030243,380.175598 
	C213.672104,374.559753 217.088135,369.238953 220.568375,363.960510 
	C222.072174,361.679718 223.823242,359.623474 226.993866,360.166412 
	C230.380020,360.746277 231.472717,363.368164 231.987320,366.262238 
	C233.148605,372.793457 234.310074,379.330078 235.197113,385.901550 
	C235.509460,388.215393 236.204468,391.321655 232.778137,392.114685 
	C229.276962,392.925018 228.373032,390.401733 227.607025,387.551849 
	C226.392044,383.031555 218.966293,381.993958 215.609955,385.862885 
	C213.899307,387.834778 212.157516,389.202271 209.678162,387.507690 
	C207.399323,385.950195 207.874908,383.835114 209.055008,381.769257 
	C209.302582,381.335876 209.571411,380.914673 210.030243,380.175598 
M222.078186,376.097443 
	C223.219620,377.093079 224.441376,377.703491 226.219604,376.852173 
	C225.939392,374.763153 225.657562,372.662048 225.260742,369.703705 
	C223.856781,372.199249 222.919739,373.864807 222.078186,376.097443 
z"/>
<path fill="#000000" opacity="1.000000" stroke="none" 
	d="
M294.643433,377.367615 
	C296.594116,375.504547 298.386169,375.092499 300.118774,376.941162 
	C301.662689,378.588501 301.012299,380.401825 300.065552,382.019653 
	C297.263733,386.807678 292.712708,388.771729 287.483643,388.718048 
	C282.188660,388.663605 278.357300,385.783661 276.392120,380.830780 
	C275.417053,378.373352 274.829865,375.754395 274.164398,373.183350 
	C272.923889,368.390717 274.175232,364.184143 277.819580,360.955780 
	C281.885864,357.353638 286.777069,356.745117 291.848541,358.376984 
	C294.296021,359.164551 296.783875,360.684601 295.782288,363.745453 
	C294.720673,366.989655 292.065552,366.412781 289.588135,365.228546 
	C287.296570,364.133118 285.105347,364.004303 283.129547,365.889771 
	C281.181763,367.748566 281.094452,369.922302 282.001068,372.312256 
	C282.411621,373.394531 282.634552,374.547394 282.953186,375.665192 
	C283.687897,378.242737 284.297455,380.971741 287.507111,381.587250 
	C290.865723,382.231323 292.720795,380.062622 294.643433,377.367615 
z"/>
<path fill="#000000" opacity="1.000000" stroke="none" 
	d="
M149.278259,132.334808 
	C146.443954,123.748962 150.230286,116.531639 158.407959,114.171364 
	C160.386597,113.600281 162.321564,113.501854 164.244278,114.332855 
	C165.870422,115.035683 167.216949,116.067902 166.971130,118.025673 
	C166.734222,119.912521 165.292725,120.832222 163.541656,121.120010 
	C162.239212,121.334076 160.845856,121.103172 159.581985,121.422592 
	C156.353760,122.238449 154.444641,124.481163 155.741333,127.662338 
	C157.169647,131.166382 159.532150,134.328415 162.685272,136.589188 
	C165.539825,138.635895 167.751389,136.893936 169.447754,134.660355 
	C170.205688,133.662384 170.411285,132.226746 170.796646,130.968018 
	C171.460403,128.800049 172.745102,127.342552 175.139526,127.910004 
	C177.539368,128.478729 178.107468,130.613220 177.768585,132.637314 
	C176.874542,137.977386 173.655899,141.734787 168.672699,143.598251 
	C163.994675,145.347610 159.367493,144.706589 155.809341,140.953964 
	C153.430801,138.445419 151.565094,135.450607 149.278259,132.334808 
z"/>
<path fill="#000000" opacity="1.000000" stroke="none" 
	d="
M335.231750,135.051666 
	C333.264008,137.108932 331.673065,139.030563 329.944275,140.818939 
	C328.396362,142.420197 326.504974,143.022354 324.617615,141.452133 
	C322.930145,140.048233 322.803253,137.842789 324.172791,136.526062 
	C330.245239,130.687820 328.345490,122.872734 329.577820,115.866631 
	C330.020813,113.348068 330.360870,110.892532 333.434662,111.197891 
	C336.541290,111.506516 337.305145,114.099815 337.001373,116.814888 
	C336.671265,119.765846 335.945923,122.680389 336.651093,125.920662 
	C340.245789,126.048508 343.103241,124.113503 346.216675,123.227570 
	C348.832153,122.483337 351.028809,122.760239 351.948700,125.487953 
	C352.841064,128.134064 350.929596,129.483597 348.749298,130.272385 
	C344.369324,131.856995 339.950989,133.335648 335.231750,135.051666 
z"/>
<path fill="#000000" opacity="1.000000" stroke="none" 
	d="
M303.550598,111.654022 
	C304.632812,109.225212 305.565216,107.136101 306.401947,105.261322 
	C305.053741,103.257698 303.020996,103.074043 301.623718,101.936035 
	C300.240631,100.809586 299.335236,99.428192 300.340485,97.624702 
	C301.154083,96.164986 302.619385,95.365097 304.129730,96.035873 
	C310.031494,98.656952 315.888611,101.387901 321.673340,104.257370 
	C323.369598,105.098793 323.720703,106.897270 322.774719,108.565773 
	C321.802429,110.280701 320.064972,110.668106 318.472351,109.713562 
	C314.280945,107.201431 312.627899,109.542572 311.191620,113.046898 
	C309.621246,116.878418 307.823242,120.618675 306.059418,124.368111 
	C304.962982,126.698792 303.251709,128.317139 300.544739,127.096603 
	C298.001862,125.950050 298.260010,123.621071 299.118195,121.514984 
	C300.430542,118.294296 301.962219,115.162979 303.550598,111.654022 
z"/>
<path fill="#000000" opacity="1.000000" stroke="none" 
	d="
M242.888718,366.109283 
	C243.585236,364.576111 244.526520,363.871399 245.749863,363.797333 
	C251.546738,363.446472 257.345215,363.093781 263.148346,362.890228 
	C265.257690,362.816284 267.277283,363.526764 267.558411,365.999237 
	C267.864899,368.694794 265.859924,369.332642 263.718658,369.473419 
	C260.088684,369.712097 259.030762,371.676270 259.233246,375.121674 
	C259.496002,379.592682 259.341400,384.088440 259.357513,388.573608 
	C259.365997,390.939514 258.828400,393.043365 255.952698,393.090851 
	C253.219452,393.135986 252.155853,391.109924 252.020294,388.818207 
	C251.745895,384.179260 251.632492,379.522247 251.687347,374.875458 
	C251.723068,371.848694 250.877045,370.110168 247.485672,370.265930 
	C244.966110,370.381622 242.763474,369.775024 242.888718,366.109283 
z"/>
<path fill="#000000" opacity="1.000000" stroke="none" 
	d="
M289.171753,98.921249 
	C287.635468,104.761894 286.233459,110.212288 284.737488,115.636765 
	C284.046051,118.143921 282.994965,120.726578 279.705597,119.681335 
	C276.686707,118.722031 276.696930,116.261597 277.462585,113.537704 
	C279.030273,107.960854 280.302734,102.300713 281.886658,96.728844 
	C282.705292,93.849030 282.992889,89.651123 287.569550,90.965096 
	C291.870361,92.199867 289.710999,95.746536 289.171753,98.921249 
z"/>
<path fill="#000000" opacity="1.000000" stroke="none" 
	d="
M212.765625,293.570343 
	C206.729416,294.536774 201.381943,296.736664 195.395767,296.459869 
	C186.278778,296.038330 183.173904,292.765625 184.640991,283.962646 
	C184.869781,282.589752 185.068130,281.163513 186.858932,281.258636 
	C188.419006,281.341522 189.097153,282.477936 189.272522,283.957916 
	C189.536758,286.187897 188.652283,289.146118 191.370300,290.142792 
	C195.011658,291.478088 198.952560,290.927887 202.727737,290.390747 
	C204.512451,290.136871 204.642349,288.326416 204.643646,286.769653 
	C204.651016,277.945679 204.619553,269.121399 204.686676,260.297882 
	C204.707092,257.611877 203.586365,256.240051 200.879990,256.209503 
	C199.382156,256.192596 197.877853,256.237213 196.388077,256.113861 
	C192.024643,255.752548 189.741058,257.332458 190.250351,262.080353 
	C190.460983,264.044006 190.253983,266.076569 190.030151,268.054352 
	C189.876740,269.409943 189.244858,270.757050 187.621979,270.784637 
	C186.290405,270.807251 185.485458,269.674896 185.242737,268.548981 
	C184.091141,263.207092 184.733719,257.990448 186.769623,252.951401 
	C186.993591,252.397049 187.639313,251.945709 188.186295,251.599792 
	C192.856537,248.646149 206.935104,251.008545 210.293076,255.346573 
	C212.224838,255.626831 213.708740,254.361923 215.287689,253.572586 
	C221.830734,250.301743 228.570190,248.457169 235.993698,249.598663 
	C244.102753,250.845581 251.858551,249.715836 259.197174,245.774902 
	C263.308411,243.567169 267.771179,242.127411 272.343475,241.132034 
	C275.523804,240.439697 278.403198,241.568542 281.495941,242.239716 
	C287.928101,243.635620 293.275452,248.525467 300.331757,247.746841 
	C302.802063,247.474258 315.229309,256.810364 315.949951,259.147980 
	C317.150635,263.042816 314.895050,265.522186 312.154907,267.616699 
	C306.306274,272.087250 299.734619,275.392151 293.187958,278.639771 
	C283.654633,283.368988 274.452148,288.705719 264.796295,293.238800 
	C253.361954,298.606812 241.905502,299.471069 229.823288,296.710724 
	C224.323929,295.454346 218.718964,294.660339 212.765625,293.570343 
M241.192886,267.262787 
	C248.817169,265.339111 257.383759,266.062866 263.638397,259.890900 
	C262.923767,258.369781 262.110992,257.741791 261.112518,257.590302 
	C249.588440,255.841751 238.004013,254.315689 226.353195,255.483765 
	C220.851730,256.035339 215.567795,258.455597 211.618927,262.309235 
	C208.544189,265.309814 210.651123,269.929504 210.206482,273.801666 
	C210.017715,275.445404 210.153503,277.126953 210.149933,278.791321 
	C210.128510,288.776245 209.497971,287.116211 218.234894,288.901672 
	C220.676239,289.400604 223.094482,290.019287 225.544144,290.469879 
	C236.513641,292.487610 247.486282,294.865906 258.406128,290.168335 
	C275.254791,282.920288 291.145355,273.841736 307.013702,264.725647 
	C308.478363,263.884216 310.457825,263.135559 309.970184,260.654480 
	C307.175781,259.355255 304.662933,260.677307 302.305603,261.661987 
	C295.402435,264.545563 288.282349,267.124664 281.837280,270.845093 
	C268.709106,278.423340 255.431732,275.090698 242.092377,272.429688 
	C239.523697,271.917297 237.623489,270.358307 241.192886,267.262787 
M287.478668,257.056732 
	C277.619507,261.070862 268.274963,266.289734 257.639709,269.198975 
	C266.525299,272.551483 273.721619,268.656403 280.952972,265.392731 
	C288.137878,262.150024 295.187469,258.607452 302.296387,255.196396 
	C302.069092,254.682892 301.841797,254.169403 301.614471,253.655914 
	C296.642242,252.170807 292.569366,255.267914 287.478668,257.056732 
M271.314209,258.253876 
	C276.682129,255.860168 282.050049,253.466461 287.417999,251.072754 
	C280.920074,249.606293 275.606018,252.298233 270.368774,254.976456 
	C268.840973,255.757767 268.616516,257.375092 271.314209,258.253876 
M262.053680,250.444260 
	C261.643616,250.750458 261.189514,251.060104 261.847626,251.547775 
	C261.961121,251.631897 262.192932,251.643326 262.333771,251.590866 
	C266.345459,250.096878 270.352478,248.590363 274.360260,247.085907 
	C270.103180,247.094223 266.287872,248.479019 262.053680,250.444260 
z"/>
<path fill="#000000" opacity="1.000000" stroke="none" 
	d="
M277.261353,169.540863 
	C282.103394,172.663940 284.894653,176.981918 286.938507,181.794601 
	C287.745148,183.694031 288.992371,186.345810 286.318420,187.524078 
	C283.435181,188.794525 282.822357,185.859741 281.992188,183.978256 
	C277.929626,174.771072 271.717926,170.650833 262.632141,171.342224 
	C257.331879,171.745529 253.181000,174.578110 249.754578,178.306641 
	C247.020584,181.281677 245.140015,181.864120 242.243027,178.356125 
	C235.930069,170.711670 226.740036,168.916901 218.531250,173.231720 
	C211.062805,177.157394 206.581192,188.324661 209.002808,197.047943 
	C212.277527,208.844299 220.570862,217.105835 229.097946,225.109879 
	C233.096085,228.862778 237.598801,232.074005 241.811081,235.604431 
	C244.209747,237.614807 246.344727,237.722351 248.870621,235.655762 
	C259.571320,226.900879 270.541656,218.455475 278.829834,207.154114 
	C279.884979,205.715317 280.886963,202.789337 283.275665,204.504715 
	C285.390045,206.023071 284.180939,208.525589 282.957123,210.360321 
	C276.577423,219.924652 267.652100,226.982437 259.030212,234.309799 
	C255.737015,237.108536 252.119904,239.525330 248.660568,242.129700 
	C246.199860,243.982239 243.955811,243.919449 241.419296,241.986130 
	C230.528900,233.685532 219.948547,225.088043 211.625275,214.048111 
	C204.409775,204.477509 201.089096,194.005981 204.741760,182.211456 
	C209.854477,165.702393 230.348053,159.963364 243.150848,171.504456 
	C245.755341,173.852249 247.188446,173.120605 249.450867,171.494080 
	C258.139404,165.247696 267.273376,163.500137 277.261353,169.540863 
z"/>
<path fill="#000000" opacity="1.000000" stroke="none" 
	d="
M213.682251,190.858215 
	C213.761795,185.047623 215.168839,180.263092 219.828156,177.005493 
	C221.201508,176.045288 222.800552,175.046600 224.278107,176.632355 
	C225.833954,178.302109 224.625870,179.580124 223.322617,180.797073 
	C219.425262,184.436386 218.510284,188.914383 219.781403,193.959763 
	C220.220749,195.703613 221.175385,197.882019 218.948303,198.731216 
	C216.548126,199.646393 215.436127,197.478210 214.705139,195.606796 
	C214.173584,194.245941 214.017609,192.738388 213.682251,190.858215 
z"/>
<path fill="#000000" opacity="1.000000" stroke="none" 
	d="
M224.829895,206.058990 
	C225.250870,206.371490 225.389755,206.468430 225.500778,206.590668 
	C226.896194,208.127151 229.178970,209.252640 228.188126,211.939484 
	C227.878052,212.780365 227.018219,213.197830 226.150238,213.063095 
	C223.501663,212.651993 222.149628,210.604294 221.408630,208.419312 
	C220.402176,205.451462 221.872452,204.745728 224.829895,206.058990 
z"/>
<path fill="#000000" opacity="1.000000" stroke="none" 
	d="
M287.817932,198.415283 
	C286.791656,200.367981 285.627991,201.577362 283.834137,200.147034 
	C282.123077,198.782730 282.724121,196.920929 283.355347,195.212570 
	C283.821960,193.949707 284.522583,192.592026 286.124664,193.131943 
	C288.562683,193.953613 288.245514,196.060883 287.817932,198.415283 
z"/>
<path fill="#000000" opacity="1.000000" stroke="none" 
	d="
M188.287003,273.802032 
	C188.747223,274.542175 189.055328,274.978363 189.101425,275.440704 
	C189.290085,277.333344 189.241409,279.247589 186.690109,279.334503 
	C184.940918,279.394165 184.627792,277.975952 184.688660,276.586395 
	C184.779190,274.519806 184.970154,272.437317 188.287003,273.802032 
z"/>
</svg>